<svg xmlns="http://www.w3.org/2000/svg" viewBox="0 0 26.57 31.71"><defs><style>.cls-1{fill:#231f20;}</style></defs><g id="Layer_2" data-name="Layer 2"><g id="Layer_5" data-name="Layer 5"><path class="cls-1" d="M13.29,16.29a3,3,0,0,1-2.13-.88L.88,5.12A3,3,0,0,1,5.12.88L13.29,9,21.45.88a3,3,0,0,1,4.24,4.24L15.41,15.41A3,3,0,0,1,13.29,16.29Z"/><path class="cls-1" d="M13.29,31.71a3,3,0,0,1-2.13-.87L.88,20.55a3,3,0,0,1,4.24-4.24l8.17,8.16,8.16-8.16a3,3,0,0,1,4.24,4.24L15.41,30.84A3,3,0,0,1,13.29,31.71Z"/></g></g></svg>